<?xml version="1.0" standalone="no"?>
 <!DOCTYPE svg PUBLIC "-//W3C//DTD SVG 1.1//EN" 
 "http://www.w3.org/Graphics/SVG/1.1/DTD/svg11.dtd"> 
<svg xmlns="http://www.w3.org/2000/svg" version="1.1" 
    width="5.05714cm" height="4.74472cm" viewBox="0 0 19910 18680 ">
<title>SVG Picture created as PowerRail-brd.svg date 2015/08/13 01:43:29 </title>
  <desc>Picture generated by PCBNEW </desc>
<g style="fill:#000000; fill-opacity:1;stroke:#000000; stroke-opacity:1;
stroke-linecap:round; stroke-linejoin:round; "
 transform="translate(0 0) scale(1 1)">
</g>
<g style="fill:#000000; fill-opacity:0.0; 
stroke:#000000; stroke-width:-0.000393701; stroke-opacity:1; 
stroke-linecap:round; stroke-linejoin:round;">
</g>
<g style="fill:#000000; fill-opacity:0.0; 
stroke:#000000; stroke-width:0; stroke-opacity:1; 
stroke-linecap:round; stroke-linejoin:round;">
</g>
<g style="fill:#000000; fill-opacity:1.0; 
stroke:#000000; stroke-width:0; stroke-opacity:1; 
stroke-linecap:round; stroke-linejoin:round;">
<polyline style="fill-rule:evenodd;"
points="10770,4500
10770,3743
11528,3743
11528,4500
10770,4500
" /> 
<circle cx="12149.6" cy="4122.05" r="378.74" /> 
</g>
<g style="fill:#000000; fill-opacity:1.0; 
stroke:#000000; stroke-width:39.3701; stroke-opacity:1; 
stroke-linecap:round; stroke-linejoin:round;">
</g>
<g style="fill:#000000; fill-opacity:1.0; 
stroke:#000000; stroke-width:0; stroke-opacity:1; 
stroke-linecap:round; stroke-linejoin:round;">
<polyline style="fill-rule:evenodd;"
points="6270,4500
6270,3743
7028,3743
7028,4500
6270,4500
" /> 
<circle cx="7649.61" cy="4122.05" r="378.74" /> 
</g>
<g style="fill:#000000; fill-opacity:1.0; 
stroke:#000000; stroke-width:39.3701; stroke-opacity:1; 
stroke-linecap:round; stroke-linejoin:round;">
</g>
<g style="fill:#000000; fill-opacity:1.0; 
stroke:#000000; stroke-width:0; stroke-opacity:1; 
stroke-linecap:round; stroke-linejoin:round;">
<circle cx="8649.61" cy="4122.05" r="378.74" /> 
</g>
<g style="fill:#000000; fill-opacity:1.0; 
stroke:#000000; stroke-width:39.3701; stroke-opacity:1; 
stroke-linecap:round; stroke-linejoin:round;">
</g>
<g style="fill:#000000; fill-opacity:1.0; 
stroke:#000000; stroke-width:393.701; stroke-opacity:1; 
stroke-linecap:round; stroke-linejoin:round;">
</g>
<g style="fill:#000000; fill-opacity:0.0; 
stroke:#000000; stroke-width:393.701; stroke-opacity:1; 
stroke-linecap:round; stroke-linejoin:round;">
<path d="M9743 9457
L8995 9457
" />
</g>
<g style="fill:#000000; fill-opacity:0.0; 
stroke:#000000; stroke-width:0; stroke-opacity:1; 
stroke-linecap:round; stroke-linejoin:round;">
</g>
<g style="fill:#000000; fill-opacity:1.0; 
stroke:#000000; stroke-width:0; stroke-opacity:1; 
stroke-linecap:round; stroke-linejoin:round;">
<polyline style="fill-rule:evenodd;"
points="11680,9257
11680,9887
10893,9887
10893,9257
11680,9257
" /> 
<polyline style="fill-rule:evenodd;"
points="10105,9257
10105,9887
9318,9887
9318,9257
10105,9257
" /> 
<polyline style="fill-rule:evenodd;"
points="8950,14014
8654,14014
8654,13541
8950,13541
8950,14014
" /> 
<polyline style="fill-rule:evenodd;"
points="8950,13266
8654,13266
8654,12793
8950,12793
8950,13266
" /> 
<polyline style="fill-rule:evenodd;"
points="10491,14042
10195,14042
10195,13569
10491,13569
10491,14042
" /> 
<polyline style="fill-rule:evenodd;"
points="10491,13294
10195,13294
10195,12821
10491,12821
10491,13294
" /> 
<polyline style="fill-rule:evenodd;"
points="11375,10513
11375,10218
11847,10218
11847,10513
11375,10513
" /> 
<polyline style="fill-rule:evenodd;"
points="12123,10513
12123,10218
12595,10218
12595,10513
12123,10513
" /> 
<polyline style="fill-rule:evenodd;"
points="12595,10960
12595,11255
12123,11255
12123,10960
12595,10960
" /> 
<polyline style="fill-rule:evenodd;"
points="11847,10960
11847,11255
11375,11255
11375,10960
11847,10960
" /> 
<polyline style="fill-rule:evenodd;"
points="6865,8406
7416,8406
7416,8761
6865,8761
6865,8406
" /> 
<polyline style="fill-rule:evenodd;"
points="6865,7146
7416,7146
7416,8013
6865,8013
6865,7146
" /> 
<polyline style="fill-rule:evenodd;"
points="10509,7553
9958,7553
9958,7199
10509,7199
10509,7553
" /> 
<polyline style="fill-rule:evenodd;"
points="10509,8813
9958,8813
9958,7947
10509,7947
10509,8813
" /> 
<polyline style="fill-rule:evenodd;"
points="8254,10673
6798,10673
6798,10288
8254,10288
8254,10673
" /> 
<polyline style="fill-rule:evenodd;"
points="8254,9740
6798,9740
6798,9355
8254,9355
8254,9740
" /> 
<polyline style="fill-rule:evenodd;"
points="9346,7375
9346,8832
8960,8832
8960,7375
9346,7375
" /> 
<polyline style="fill-rule:evenodd;"
points="8412,7375
8412,8832
8027,8832
8027,7375
8412,7375
" /> 
<polyline style="fill-rule:evenodd;"
points="9320,12665
9674,12665
9674,13138
9320,13138
9320,12665
" /> 
<polyline style="fill-rule:evenodd;"
points="9320,13531
9674,13531
9674,14004
9320,14004
9320,13531
" /> 
<polyline style="fill-rule:evenodd;"
points="10852,12685
11206,12685
11206,13158
10852,13158
10852,12685
" /> 
<polyline style="fill-rule:evenodd;"
points="10852,13551
11206,13551
11206,14024
10852,14024
10852,13551
" /> 
<polyline style="fill-rule:evenodd;"
points="8281,12133
8281,12488
7809,12488
7809,12133
8281,12133
" /> 
<polyline style="fill-rule:evenodd;"
points="7415,12133
7415,12488
6943,12488
6943,12133
7415,12133
" /> 
<polyline style="fill-rule:evenodd;"
points="12668,11693
12668,12048
12196,12048
12196,11693
12668,11693
" /> 
<polyline style="fill-rule:evenodd;"
points="11802,11693
11802,12048
11330,12048
11330,11693
11802,11693
" /> 
<polyline style="fill-rule:evenodd;"
points="6952,11740
6952,11385
7424,11385
7424,11740
6952,11740
" /> 
<polyline style="fill-rule:evenodd;"
points="7818,11740
7818,11385
8290,11385
8290,11740
7818,11740
" /> 
<polyline style="fill-rule:evenodd;"
points="12630,13712
12276,13712
12276,13239
12630,13239
12630,13712
" /> 
<polyline style="fill-rule:evenodd;"
points="12630,12846
12276,12846
12276,12373
12630,12373
12630,12846
" /> 
<polyline style="fill-rule:evenodd;"
points="8982,10842
8982,10724
9269,10724
9269,10842
8982,10842
" /> 
<polyline style="fill-rule:evenodd;"
points="8982,11039
8982,10921
9269,10921
9269,11039
8982,11039
" /> 
<polyline style="fill-rule:evenodd;"
points="8982,11236
8982,11117
9269,11117
9269,11236
8982,11236
" /> 
<polyline style="fill-rule:evenodd;"
points="8982,11432
8982,11314
9269,11314
9269,11432
8982,11432
" /> 
<polyline style="fill-rule:evenodd;"
points="8982,11629
8982,11511
9269,11511
9269,11629
8982,11629
" /> 
<polyline style="fill-rule:evenodd;"
points="9565,12094
9446,12094
9446,11806
9565,11806
9565,12094
" /> 
<polyline style="fill-rule:evenodd;"
points="9761,12094
9643,12094
9643,11806
9761,11806
9761,12094
" /> 
<polyline style="fill-rule:evenodd;"
points="9958,12094
9840,12094
9840,11806
9958,11806
9958,12094
" /> 
<polyline style="fill-rule:evenodd;"
points="10155,12094
10037,12094
10037,11806
10155,11806
10155,12094
" /> 
<polyline style="fill-rule:evenodd;"
points="10352,12094
10234,12094
10234,11806
10352,11806
10352,12094
" /> 
<polyline style="fill-rule:evenodd;"
points="10529,11629
10529,11511
10816,11511
10816,11629
10529,11629
" /> 
<polyline style="fill-rule:evenodd;"
points="10529,11432
10529,11314
10816,11314
10816,11432
10529,11432
" /> 
<polyline style="fill-rule:evenodd;"
points="10529,11236
10529,11117
10816,11117
10816,11236
10529,11236
" /> 
<polyline style="fill-rule:evenodd;"
points="10529,11039
10529,10921
10816,10921
10816,11039
10529,11039
" /> 
<polyline style="fill-rule:evenodd;"
points="10529,10842
10529,10724
10816,10724
10816,10842
10529,10842
" /> 
<polyline style="fill-rule:evenodd;"
points="10352,10547
10234,10547
10234,10259
10352,10259
10352,10547
" /> 
<polyline style="fill-rule:evenodd;"
points="10155,10547
10037,10547
10037,10259
10155,10259
10155,10547
" /> 
<polyline style="fill-rule:evenodd;"
points="9958,10547
9840,10547
9840,10259
9958,10259
9958,10547
" /> 
<polyline style="fill-rule:evenodd;"
points="9761,10547
9643,10547
9643,10259
9761,10259
9761,10547
" /> 
<polyline style="fill-rule:evenodd;"
points="9565,10547
9446,10547
9446,10259
9565,10259
9565,10547
" /> 
<polyline style="fill-rule:evenodd;"
points="9899,11669
9899,11176
10391,11176
10391,11669
9899,11669
" /> 
<polyline style="fill-rule:evenodd;"
points="9899,11176
9899,10684
10391,10684
10391,11176
9899,11176
" /> 
<polyline style="fill-rule:evenodd;"
points="9407,11669
9407,11176
9899,11176
9899,11669
9407,11669
" /> 
<polyline style="fill-rule:evenodd;"
points="9407,11176
9407,10684
9899,10684
9899,11176
9407,11176
" /> 
<polyline style="fill-rule:evenodd;"
points="6218,6487
6218,5857
7005,5857
7005,6487
6218,6487
" /> 
<polyline style="fill-rule:evenodd;"
points="7793,6487
7793,5857
8580,5857
8580,6487
7793,6487
" /> 
<polyline style="fill-rule:evenodd;"
points="8918,6487
8918,5857
9705,5857
9705,6487
8918,6487
" /> 
<polyline style="fill-rule:evenodd;"
points="10493,6487
10493,5857
11280,5857
11280,6487
10493,6487
" /> 
<polyline style="fill-rule:evenodd;"
points="10849,4422
10849,3822
11449,3822
11449,4422
10849,4422
" /> 
<circle cx="12149.6" cy="4122.05" r="300" /> 
</g>
<g style="fill:#000000; fill-opacity:1.0; 
stroke:#000000; stroke-width:39.3701; stroke-opacity:1; 
stroke-linecap:round; stroke-linejoin:round;">
</g>
<g style="fill:#000000; fill-opacity:1.0; 
stroke:#000000; stroke-width:0; stroke-opacity:1; 
stroke-linecap:round; stroke-linejoin:round;">
<polyline style="fill-rule:evenodd;"
points="6349,4422
6349,3822
6949,3822
6949,4422
6349,4422
" /> 
<circle cx="7649.61" cy="4122.05" r="300" /> 
</g>
<g style="fill:#000000; fill-opacity:1.0; 
stroke:#000000; stroke-width:39.3701; stroke-opacity:1; 
stroke-linecap:round; stroke-linejoin:round;">
</g>
<g style="fill:#000000; fill-opacity:1.0; 
stroke:#000000; stroke-width:0; stroke-opacity:1; 
stroke-linecap:round; stroke-linejoin:round;">
<circle cx="8649.61" cy="4122.05" r="300" /> 
</g>
<g style="fill:#000000; fill-opacity:1.0; 
stroke:#000000; stroke-width:39.3701; stroke-opacity:1; 
stroke-linecap:round; stroke-linejoin:round;">
</g>
<g style="fill:#000000; fill-opacity:1.0; 
stroke:#000000; stroke-width:0; stroke-opacity:1; 
stroke-linecap:round; stroke-linejoin:round;">
<circle cx="9743.62" cy="9457.05" r="196.85" /> 
</g>
<g style="fill:#000000; fill-opacity:1.0; 
stroke:#000000; stroke-width:39.3701; stroke-opacity:1; 
stroke-linecap:round; stroke-linejoin:round;">
</g>
<g style="fill:#000000; fill-opacity:1.0; 
stroke:#000000; stroke-width:0; stroke-opacity:1; 
stroke-linecap:round; stroke-linejoin:round;">
<circle cx="8995.59" cy="9457.05" r="196.85" /> 
</g>
<g style="fill:#000000; fill-opacity:1.0; 
stroke:#000000; stroke-width:39.3701; stroke-opacity:1; 
stroke-linecap:round; stroke-linejoin:round;">
</g>
<g style="fill:#000000; fill-opacity:1.0; 
stroke:#000000; stroke-width:0; stroke-opacity:1; 
stroke-linecap:round; stroke-linejoin:round;">
<circle cx="10999.6" cy="10122" r="118.11" /> 
</g>
<g style="fill:#000000; fill-opacity:1.0; 
stroke:#000000; stroke-width:39.3701; stroke-opacity:1; 
stroke-linecap:round; stroke-linejoin:round;">
</g>
<g style="fill:#000000; fill-opacity:1.0; 
stroke:#000000; stroke-width:0; stroke-opacity:1; 
stroke-linecap:round; stroke-linejoin:round;">
<circle cx="9869.61" cy="12372" r="118.11" /> 
</g>
<g style="fill:#000000; fill-opacity:1.0; 
stroke:#000000; stroke-width:39.3701; stroke-opacity:1; 
stroke-linecap:round; stroke-linejoin:round;">
</g>
<g style="fill:#000000; fill-opacity:1.0; 
stroke:#000000; stroke-width:0; stroke-opacity:1; 
stroke-linecap:round; stroke-linejoin:round;">
<circle cx="9942.75" cy="9622.05" r="118.11" /> 
</g>
<g style="fill:#000000; fill-opacity:1.0; 
stroke:#000000; stroke-width:39.3701; stroke-opacity:1; 
stroke-linecap:round; stroke-linejoin:round;">
</g>
<g style="fill:#000000; fill-opacity:1.0; 
stroke:#000000; stroke-width:0; stroke-opacity:1; 
stroke-linecap:round; stroke-linejoin:round;">
<circle cx="10499.6" cy="12472" r="118.11" /> 
</g>
<g style="fill:#000000; fill-opacity:1.0; 
stroke:#000000; stroke-width:39.3701; stroke-opacity:1; 
stroke-linecap:round; stroke-linejoin:round;">
</g>
<g style="fill:#000000; fill-opacity:1.0; 
stroke:#000000; stroke-width:0; stroke-opacity:1; 
stroke-linecap:round; stroke-linejoin:round;">
<circle cx="9653.61" cy="10930.9" r="118.11" /> 
</g>
<g style="fill:#000000; fill-opacity:1.0; 
stroke:#000000; stroke-width:39.3701; stroke-opacity:1; 
stroke-linecap:round; stroke-linejoin:round;">
</g>
<g style="fill:#000000; fill-opacity:1.0; 
stroke:#000000; stroke-width:0; stroke-opacity:1; 
stroke-linecap:round; stroke-linejoin:round;">
<circle cx="10145.7" cy="10930.9" r="118.11" /> 
</g>
<g style="fill:#000000; fill-opacity:1.0; 
stroke:#000000; stroke-width:39.3701; stroke-opacity:1; 
stroke-linecap:round; stroke-linejoin:round;">
</g>
<g style="fill:#000000; fill-opacity:1.0; 
stroke:#000000; stroke-width:0; stroke-opacity:1; 
stroke-linecap:round; stroke-linejoin:round;">
<circle cx="10145.7" cy="11423" r="118.11" /> 
</g>
<g style="fill:#000000; fill-opacity:1.0; 
stroke:#000000; stroke-width:39.3701; stroke-opacity:1; 
stroke-linecap:round; stroke-linejoin:round;">
</g>
<g style="fill:#000000; fill-opacity:1.0; 
stroke:#000000; stroke-width:0; stroke-opacity:1; 
stroke-linecap:round; stroke-linejoin:round;">
<circle cx="9653.61" cy="11423" r="118.11" /> 
</g>
<g style="fill:#000000; fill-opacity:1.0; 
stroke:#000000; stroke-width:39.3701; stroke-opacity:1; 
stroke-linecap:round; stroke-linejoin:round;">
</g>
<g style="fill:#000000; fill-opacity:1.0; 
stroke:#000000; stroke-width:0; stroke-opacity:1; 
stroke-linecap:round; stroke-linejoin:round;">
<circle cx="7419.61" cy="12842" r="118.11" /> 
</g>
<g style="fill:#000000; fill-opacity:1.0; 
stroke:#000000; stroke-width:39.3701; stroke-opacity:1; 
stroke-linecap:round; stroke-linejoin:round;">
</g>
<g style="fill:#000000; fill-opacity:1.0; 
stroke:#000000; stroke-width:0; stroke-opacity:1; 
stroke-linecap:round; stroke-linejoin:round;">
<circle cx="12119.6" cy="9882.05" r="118.11" /> 
</g>
<g style="fill:#000000; fill-opacity:1.0; 
stroke:#000000; stroke-width:39.3701; stroke-opacity:1; 
stroke-linecap:round; stroke-linejoin:round;">
</g>
<g style="fill:#000000; fill-opacity:1.0; 
stroke:#000000; stroke-width:0; stroke-opacity:1; 
stroke-linecap:round; stroke-linejoin:round;">
<circle cx="8649.61" cy="11122" r="118.11" /> 
</g>
<g style="fill:#000000; fill-opacity:1.0; 
stroke:#000000; stroke-width:39.3701; stroke-opacity:1; 
stroke-linecap:round; stroke-linejoin:round;">
</g>
<g style="fill:#000000; fill-opacity:1.0; 
stroke:#000000; stroke-width:0; stroke-opacity:1; 
stroke-linecap:round; stroke-linejoin:round;">
<circle cx="10899.6" cy="7422.05" r="118.11" /> 
</g>
<g style="fill:#000000; fill-opacity:1.0; 
stroke:#000000; stroke-width:39.3701; stroke-opacity:1; 
stroke-linecap:round; stroke-linejoin:round;">
</g>
<g style="fill:#000000; fill-opacity:1.0; 
stroke:#000000; stroke-width:0; stroke-opacity:1; 
stroke-linecap:round; stroke-linejoin:round;">
<circle cx="12999.6" cy="12622" r="118.11" /> 
</g>
<g style="fill:#000000; fill-opacity:1.0; 
stroke:#000000; stroke-width:39.3701; stroke-opacity:1; 
stroke-linecap:round; stroke-linejoin:round;">
</g>
<g style="fill:#000000; fill-opacity:1.0; 
stroke:#000000; stroke-width:300; stroke-opacity:1; 
stroke-linecap:round; stroke-linejoin:round;">
</g>
<g style="fill:#000000; fill-opacity:0.0; 
stroke:#000000; stroke-width:300; stroke-opacity:1; 
stroke-linecap:round; stroke-linejoin:round;">
<path d="M11449 8469
L11449 9022
" />
<path d="M11949 5422
L11949 7969
" />
<path d="M11949 7969
L11449 8469
" />
<path d="M11849 5322
L11949 5422
" />
<path d="M11749 5322
L11849 5322
" />
<path d="M11149 4122
L11149 4722
" />
<path d="M11149 4722
L11749 5322
" />
</g>
<g style="fill:#000000; fill-opacity:0.0; 
stroke:#000000; stroke-width:150; stroke-opacity:1; 
stroke-linecap:round; stroke-linejoin:round;">
<path d="M10293 10403
L10718 10403
" />
<path d="M10718 10403
L10999 10122
" />
<path d="M10293 10403
L10112 10403
" />
<path d="M10999 10122
L10673 10448
" />
<path d="M10673 10448
L10673 10767
" />
</g>
<g style="fill:#000000; fill-opacity:0.0; 
stroke:#000000; stroke-width:60; stroke-opacity:1; 
stroke-linecap:round; stroke-linejoin:round;">
<path d="M9702 11950
L9702 12205
" />
<path d="M9702 12205
L9869 12372
" />
<path d="M9712 9572
L9892 9572
" />
<path d="M9892 9572
L9942 9622
" />
<path d="M9699 9584
L9712 9572
" />
</g>
<g style="fill:#000000; fill-opacity:0.0; 
stroke:#000000; stroke-width:150; stroke-opacity:1; 
stroke-linecap:round; stroke-linejoin:round;">
<path d="M9387 9647
L9917 9647
" />
<path d="M9917 9647
L9942 9622
" />
</g>
<g style="fill:#000000; fill-opacity:0.0; 
stroke:#000000; stroke-width:60; stroke-opacity:1; 
stroke-linecap:round; stroke-linejoin:round;">
<path d="M10414 12472
L10499 12472
" />
<path d="M10343 12628
L10381 12590
" />
<path d="M10343 13058
L10343 12628
" />
<path d="M10096 12154
L10414 12472
" />
<path d="M10096 11950
L10096 12154
" />
<path d="M10381 12590
L10499 12472
" />
<path d="M10145 10930
L9653 10930
" />
<path d="M10145 11423
L10145 10930
" />
<path d="M9653 11423
L10145 11423
" />
<path d="M9653 10930
L9653 11423
" />
<path d="M9126 10980
L8791 10980
" />
<path d="M8791 10980
L8649 11122
" />
<path d="M8802 13030
L7607 13030
" />
<path d="M7607 13030
L7419 12842
" />
<path d="M7179 12311
L7179 12601
" />
<path d="M7179 12601
L7419 12842
" />
<path d="M12359 10366
L12359 10122
" />
<path d="M12359 10122
L12119 9882
" />
<path d="M9126 11176
L8704 11176
" />
<path d="M8704 11176
L8649 11122
" />
<path d="M11916 10721
L11916 10753
" />
<path d="M11916 10753
L12271 11108
" />
<path d="M12271 11108
L12359 11108
" />
<path d="M10673 11176
L10996 11176
" />
<path d="M10996 11176
L11452 10721
" />
<path d="M11452 10721
L11916 10721
" />
<path d="M11916 10721
L12271 10366
" />
<path d="M12271 10366
L12359 10366
" />
<path d="M10343 13058
L10343 12761
" />
<path d="M9497 13768
L8812 13768
" />
<path d="M8812 13768
L8802 13778
" />
<path d="M10343 13806
L11011 13806
" />
<path d="M11011 13806
L11029 13788
" />
<path d="M10673 10980
L10997 10980
" />
<path d="M10997 10980
L11315 10662
" />
<path d="M11315 10662
L11315 10573
" />
<path d="M11315 10573
L11523 10366
" />
<path d="M11523 10366
L11611 10366
" />
<path d="M11611 11108
L11611 11234
" />
<path d="M11611 11234
L12248 11871
" />
<path d="M12248 11871
L12432 11871
" />
<path d="M11611 11108
L11315 11108
" />
<path d="M11315 11108
L11049 11373
" />
<path d="M11049 11373
L10876 11373
" />
<path d="M10876 11373
L10673 11373
" />
</g>
<g style="fill:#000000; fill-opacity:0.0; 
stroke:#000000; stroke-width:150; stroke-opacity:1; 
stroke-linecap:round; stroke-linejoin:round;">
<path d="M7526 9547
L7259 9280
" />
<path d="M7259 9280
L7259 8702
" />
<path d="M7259 8702
L7140 8583
" />
</g>
<g style="fill:#000000; fill-opacity:0.0; 
stroke:#000000; stroke-width:60; stroke-opacity:1; 
stroke-linecap:round; stroke-linejoin:round;">
<path d="M9505 10403
L9130 10403
" />
<path d="M9130 10403
L8314 9587
" />
<path d="M8314 9587
L8314 9547
" />
<path d="M8314 9547
L7526 9547
" />
</g>
<g style="fill:#000000; fill-opacity:0.0; 
stroke:#000000; stroke-width:300; stroke-opacity:1; 
stroke-linecap:round; stroke-linejoin:round;">
<path d="M10233 8380
L9429 8380
" />
<path d="M9429 8380
L9153 8104
" />
<path d="M10399 9222
L10399 8546
" />
<path d="M10399 8546
L10233 8380
" />
</g>
<g style="fill:#000000; fill-opacity:0.0; 
stroke:#000000; stroke-width:60; stroke-opacity:1; 
stroke-linecap:round; stroke-linejoin:round;">
<path d="M9899 10403
L9899 10201
" />
<path d="M9899 10201
L10029 10072
" />
<path d="M10399 9922
L10399 9222
" />
<path d="M10029 10072
L10249 10072
" />
<path d="M10249 10072
L10399 9922
" />
<path d="M8713 10783
L8411 10481
" />
<path d="M8411 10481
L7526 10481
" />
<path d="M9126 10783
L8713 10783
" />
<path d="M9497 12901
L9497 11958
" />
<path d="M9497 11958
L9505 11950
" />
<path d="M10354 11950
L10293 11950
" />
<path d="M11029 12625
L10354 11950
" />
<path d="M11029 12921
L11029 12625
" />
<path d="M8054 11563
L9118 11563
" />
<path d="M9118 11563
L9126 11570
" />
<path d="M8045 12311
L8045 11572
" />
<path d="M8045 11572
L8054 11563
" />
<path d="M11566 11871
L11566 12108
" />
<path d="M11566 12108
L12068 12609
" />
<path d="M12068 12609
L12216 12609
" />
<path d="M12216 12609
L12453 12609
" />
<path d="M10673 11570
L10876 11570
" />
<path d="M10876 11570
L11177 11871
" />
<path d="M11177 11871
L11566 11871
" />
</g>
<g style="fill:#000000; fill-opacity:0.0; 
stroke:#000000; stroke-width:300; stroke-opacity:1; 
stroke-linecap:round; stroke-linejoin:round;">
<path d="M6612 6172
L6612 4159
" />
<path d="M6612 4159
L6649 4122
" />
</g>
<g style="fill:#000000; fill-opacity:0.0; 
stroke:#000000; stroke-width:60; stroke-opacity:1; 
stroke-linecap:round; stroke-linejoin:round;">
<path d="M7188 11563
L6892 11563
" />
<path d="M6892 11563
L6399 11070
" />
<path d="M6399 11070
L6399 7772
" />
<path d="M6399 7772
L6591 7579
" />
<path d="M6591 7579
L7140 7579
" />
</g>
<g style="fill:#000000; fill-opacity:0.0; 
stroke:#000000; stroke-width:300; stroke-opacity:1; 
stroke-linecap:round; stroke-linejoin:round;">
<path d="M8187 6172
L8187 8070
" />
<path d="M8187 8070
L8220 8104
" />
<path d="M8187 6172
L9312 6172
" />
<path d="M8995 9457
L8220 8681
" />
<path d="M8220 8681
L8220 8104
" />
</g>
<g style="fill:#000000; fill-opacity:0.0; 
stroke:#000000; stroke-width:60; stroke-opacity:1; 
stroke-linecap:round; stroke-linejoin:round;">
<path d="M9702 10403
L9702 10154
" />
<path d="M9702 10154
L9600 10052
" />
<path d="M9600 10052
L9224 10052
" />
<path d="M9224 10052
L8995 9823
" />
<path d="M8995 9823
L8995 9457
" />
<path d="M8220 8671
L8220 8104
" />
</g>
<g style="fill:#000000; fill-opacity:0.0; 
stroke:#000000; stroke-width:300; stroke-opacity:1; 
stroke-linecap:round; stroke-linejoin:round;">
<path d="M8187 6172
L8187 5557
" />
<path d="M8187 5557
L7649 5019
" />
<path d="M7649 5019
L7649 4122
" />
</g>
<g style="fill:#000000; fill-opacity:0.0; 
stroke:#000000; stroke-width:60; stroke-opacity:1; 
stroke-linecap:round; stroke-linejoin:round;">
<path d="M8220 8639
L8220 8104
" />
</g>
<g style="fill:#000000; fill-opacity:0.0; 
stroke:#000000; stroke-width:300; stroke-opacity:1; 
stroke-linecap:round; stroke-linejoin:round;">
<path d="M10233 7376
L10853 7376
" />
<path d="M10853 7376
L10899 7422
" />
<path d="M10233 7376
L10233 6825
" />
<path d="M10233 6825
L10887 6172
" />
<path d="M10887 6172
L10887 5557
" />
<path d="M10887 5557
L10451 5122
" />
<path d="M10451 5122
L8849 5122
" />
<path d="M8849 5122
L8649 4922
" />
<path d="M8649 4922
L8649 4122
" />
</g>
<g style="fill:#000000; fill-opacity:0.0; 
stroke:#000000; stroke-width:60; stroke-opacity:1; 
stroke-linecap:round; stroke-linejoin:round;">
<path d="M12777 12855
L12777 12844
" />
<path d="M12777 12844
L12999 12622
" />
<path d="M10233 7376
L10332 7376
" />
<path d="M12453 13179
L12453 13476
" />
<path d="M12777 12855
L12453 13179
" />
</g>
<g style="fill:#000000; fill-opacity:1.0; 
stroke:#000000; stroke-width:100; stroke-opacity:1; 
stroke-linecap:round; stroke-linejoin:round;">
<polyline style="fill-rule:evenodd;"
points="11865,7886
11889,8817
11889,9591
11807,9673
11751,9808
11751,9845
11363,9852
11344,9856
11328,9867
11322,9875
11240,10008
11197,10035
11140,10119
11125,10195
10845,10649
10642,10663
10629,10592
10574,10507
10490,10450
10391,10429
10213,10429
10213,10352
10249,10352
10356,10330
10447,10270
10597,10120
10638,10059
10658,10029
10673,9954
10680,9949
10694,9936
10703,9918
10704,9907
10704,9471
10769,9375
10799,9222
10799,9214
10900,9212
10919,9207
10936,9196
10946,9179
10949,9162
10949,7872
11865,7886
" /> 
<polyline style="fill-rule:evenodd;"
points="8658,10672
8586,10744
8271,10630
8254,10627
6850,10622
6853,10356
8237,10352
8658,10672
" /> 
<polyline style="fill-rule:evenodd;"
points="7369,9146
7373,9166
7384,9182
7401,9193
7420,9197
8131,9182
8744,9942
8797,10021
8855,10078
8985,10239
8285,9697
8267,9688
8254,9687
6679,9701
6679,8452
7374,8452
7369,9146
" /> 
<polyline style="fill-rule:evenodd;"
points="7159,5686
7154,6911
7158,6931
7169,6947
7186,6958
7204,6962
7374,6962
7374,7957
6859,7962
6649,7957
6649,6708
6645,6688
6634,6672
6617,6661
6598,6658
5929,6668
5929,5674
7159,5686
" /> 
<polyline style="fill-rule:evenodd;"
points="12549,11201
12164,11197
12164,10892
12160,10872
12149,10856
12131,10845
12051,10815
12030,10782
11963,10736
12025,10696
12082,10612
12086,10592
12144,10568
12160,10556
12171,10540
12174,10522
12174,10122
12544,10122
12549,11201
" /> 
<polyline style="fill-rule:evenodd;"
points="9289,7763
9294,7782
9305,7798
9322,7809
9334,7811
10469,7917
10474,8841
10030,8837
10029,8837
9299,8842
9009,8842
8999,7432
9280,7432
9289,7763
" /> 
<polyline style="fill-rule:evenodd;"
points="13870,14842
5929,14842
5929,12423
6693,12423
6693,12537
6731,12629
6801,12700
6893,12738
7067,12738
7129,12675
7129,12361
6755,12361
6693,12423
5929,12423
5929,7026
6300,7031
6303,7471
6201,7574
6140,7664
6135,7692
6119,7772
6119,11070
6140,11177
6201,11268
6694,11761
6702,11766
6714,11832
6769,11917
6791,11932
6731,11992
6693,12084
6693,12198
6755,12261
7129,12261
7129,12253
7229,12253
7229,12261
7237,12261
7237,12361
7229,12361
7229,12675
7292,12738
7465,12738
7557,12700
7612,12644
7626,12665
7710,12723
7809,12743
8281,12743
8374,12725
8426,12692
8404,12744
8404,12917
8467,12980
8752,12980
8752,12606
8690,12543
8605,12543
8518,12579
8536,12488
8536,12133
8519,12041
8464,11956
8441,11940
8468,11922
8523,11843
8851,11843
8883,11864
8982,11884
9192,11884
9192,12094
9209,12186
9217,12199
9217,12434
9142,12483
9085,12566
9083,12578
8999,12543
8915,12543
8852,12606
8852,12980
8860,12980
8860,13080
8852,13080
8852,13087
8752,13087
8752,13080
8467,13080
8404,13142
8404,13315
8443,13407
8443,13408
8420,13442
8400,13541
8400,14014
8417,14106
8472,14192
8555,14249
8654,14269
8950,14269
9042,14251
9127,14196
9138,14182
9221,14239
9320,14259
9674,14259
9767,14241
9852,14187
9909,14103
9929,14004
9929,13531
9912,13439
9857,13354
9830,13335
9852,13320
9909,13237
9929,13138
9929,12740
9942,12740
9962,12731
9945,12772
9945,12945
10008,13008
10293,13008
10293,12634
10231,12571
10185,12571
10237,12445
10237,12349
10352,12349
10356,12348
10607,12599
10540,12571
10456,12571
10393,12634
10393,13008
10401,13008
10401,13108
10393,13108
10393,13115
10293,13115
10293,13108
10008,13108
9945,13170
9945,13343
9984,13435
9984,13436
9961,13470
9941,13569
9941,14042
9958,14134
10013,14220
10096,14277
10195,14297
10491,14297
10583,14279
10668,14224
10679,14209
10753,14259
10852,14279
11206,14279
11299,14261
11384,14207
11441,14123
11461,14024
11461,13551
11444,13459
11389,13374
11362,13355
11384,13340
11441,13257
11461,13158
11461,12685
11444,12593
11389,12508
11305,12450
11233,12436
11227,12427
10684,11884
10794,11884
10979,12069
11070,12129
11091,12133
11092,12140
11147,12225
11231,12283
11330,12303
11366,12303
11368,12306
11870,12807
11961,12868
12028,12882
12038,12938
12093,13023
12121,13042
12098,13057
12041,13140
12021,13239
12021,13712
12038,13804
12093,13890
12177,13947
12276,13967
12630,13967
12723,13949
12808,13895
12865,13811
12885,13712
12885,13239
12870,13159
12975,13053
12999,13018
13027,12990
13072,12990
13207,12934
13311,12830
13367,12695
13367,12549
13311,12413
13208,12310
13073,12254
12926,12253
12866,12278
12839,12235
12846,12230
12903,12147
12923,12048
12923,11693
12906,11601
12887,11572
12949,11572
12969,11568
12985,11556
12996,11540
12999,11522
12999,9822
12995,9802
12984,9786
12967,9775
12949,9772
12199,9772
12201,8283
12232,8252
12319,8122
12319,8122
12349,7969
12349,5422
12319,5268
12290,5225
12232,5139
12132,5039
12002,4952
11977,4947
11931,4938
11609,4616
11627,4604
11684,4521
11687,4507
11834,4507
11861,4603
12067,4676
12286,4665
12437,4603
12464,4507
12149,4192
11834,4507
11687,4507
11704,4422
11704,4420
11763,4437
12078,4122
12220,4122
12535,4437
12630,4409
12704,4203
12693,3985
12630,3834
12535,3806
12220,4122
12078,4122
11763,3806
11704,3823
11704,3822
11688,3736
11834,3736
12149,4051
12464,3736
12437,3640
12231,3567
12012,3578
11861,3640
11834,3736
11688,3736
11687,3729
11632,3644
11548,3587
11449,3567
10849,3567
10756,3584
10671,3639
10614,3722
10594,3822
10594,4422
10612,4514
10666,4599
10749,4656
10749,4722
10758,4768
10780,4875
10798,4903
10734,4839
10605,4752
10579,4747
10451,4722
9049,4722
9049,4499
9115,4434
9199,4231
9199,4013
9116,3810
8961,3656
8759,3572
8540,3571
8338,3655
8183,3810
8149,3891
8116,3810
7961,3656
7759,3572
7540,3571
7338,3655
7199,3794
7187,3729
7132,3644
7048,3587
6949,3567
6349,3567
6256,3584
6171,3639
6114,3722
6094,3822
6094,4422
6112,4514
6166,4599
6212,4630
6212,5224
5929,5223
5929,3401
13870,3401
13870,14842
" /> 
<polyline style="fill-rule:evenodd;"
points="9703,11373
9712,11373
9766,11426
10033,11426
10087,11373
10095,11373
10095,11365
10195,11365
10195,11373
10203,11373
10203,11473
10195,11473
10195,11480
10095,11480
10095,11473
9703,11473
9703,11480
9603,11480
9603,11473
9595,11473
9595,11373
9603,11373
9603,11365
9703,11365
9703,11373
" /> 
<polyline style="fill-rule:evenodd;"
points="8743,11116
8770,11180
8770,11181
8747,11215
8737,11263
8732,11269
8732,11283
8521,11283
8473,11208
8390,11151
8290,11130
7818,11130
7725,11148
7640,11203
7621,11230
7607,11208
7523,11151
7424,11130
6952,11130
6871,11146
6722,10997
8743,11116
" /> 
<polyline style="fill-rule:evenodd;"
points="11549,7512
10008,7521
9985,5676
11549,5672
11549,7512
" /> 
<polyline style="fill-rule:evenodd;"
points="9669,7016
8555,7002
8535,7005
8519,7016
8508,7033
8504,7051
8499,8746
8503,8766
8510,8777
8753,9092
8679,9141
8623,9225
8195,8791
8178,8780
8159,8777
7863,8777
7785,5666
9659,5652
9669,7016
" /> 
</g>
<g style="fill:#FFFFFF; fill-opacity:1.0; 
stroke:#FFFFFF; stroke-width:100; stroke-opacity:1; 
stroke-linecap:round; stroke-linejoin:round;">
</g>
<g style="fill:#FFFFFF; fill-opacity:1.0; 
stroke:#FFFFFF; stroke-width:0; stroke-opacity:1; 
stroke-linecap:round; stroke-linejoin:round;">
<circle cx="10999.6" cy="10122" r="78.7402" /> 
</g>
<g style="fill:#FFFFFF; fill-opacity:1.0; 
stroke:#FFFFFF; stroke-width:39.3701; stroke-opacity:1; 
stroke-linecap:round; stroke-linejoin:round;">
</g>
<g style="fill:#FFFFFF; fill-opacity:1.0; 
stroke:#FFFFFF; stroke-width:0; stroke-opacity:1; 
stroke-linecap:round; stroke-linejoin:round;">
<circle cx="9869.61" cy="12372" r="78.7402" /> 
</g>
<g style="fill:#FFFFFF; fill-opacity:1.0; 
stroke:#FFFFFF; stroke-width:39.3701; stroke-opacity:1; 
stroke-linecap:round; stroke-linejoin:round;">
</g>
<g style="fill:#FFFFFF; fill-opacity:1.0; 
stroke:#FFFFFF; stroke-width:0; stroke-opacity:1; 
stroke-linecap:round; stroke-linejoin:round;">
<circle cx="9942.75" cy="9622.05" r="78.7402" /> 
</g>
<g style="fill:#FFFFFF; fill-opacity:1.0; 
stroke:#FFFFFF; stroke-width:39.3701; stroke-opacity:1; 
stroke-linecap:round; stroke-linejoin:round;">
</g>
<g style="fill:#FFFFFF; fill-opacity:1.0; 
stroke:#FFFFFF; stroke-width:0; stroke-opacity:1; 
stroke-linecap:round; stroke-linejoin:round;">
<circle cx="10499.6" cy="12472" r="78.7402" /> 
</g>
<g style="fill:#FFFFFF; fill-opacity:1.0; 
stroke:#FFFFFF; stroke-width:39.3701; stroke-opacity:1; 
stroke-linecap:round; stroke-linejoin:round;">
</g>
<g style="fill:#FFFFFF; fill-opacity:1.0; 
stroke:#FFFFFF; stroke-width:0; stroke-opacity:1; 
stroke-linecap:round; stroke-linejoin:round;">
<circle cx="9653.61" cy="10930.9" r="78.7402" /> 
</g>
<g style="fill:#FFFFFF; fill-opacity:1.0; 
stroke:#FFFFFF; stroke-width:39.3701; stroke-opacity:1; 
stroke-linecap:round; stroke-linejoin:round;">
</g>
<g style="fill:#FFFFFF; fill-opacity:1.0; 
stroke:#FFFFFF; stroke-width:0; stroke-opacity:1; 
stroke-linecap:round; stroke-linejoin:round;">
<circle cx="10145.7" cy="10930.9" r="78.7402" /> 
</g>
<g style="fill:#FFFFFF; fill-opacity:1.0; 
stroke:#FFFFFF; stroke-width:39.3701; stroke-opacity:1; 
stroke-linecap:round; stroke-linejoin:round;">
</g>
<g style="fill:#FFFFFF; fill-opacity:1.0; 
stroke:#FFFFFF; stroke-width:0; stroke-opacity:1; 
stroke-linecap:round; stroke-linejoin:round;">
<circle cx="10145.7" cy="11423" r="78.7402" /> 
</g>
<g style="fill:#FFFFFF; fill-opacity:1.0; 
stroke:#FFFFFF; stroke-width:39.3701; stroke-opacity:1; 
stroke-linecap:round; stroke-linejoin:round;">
</g>
<g style="fill:#FFFFFF; fill-opacity:1.0; 
stroke:#FFFFFF; stroke-width:0; stroke-opacity:1; 
stroke-linecap:round; stroke-linejoin:round;">
<circle cx="9653.61" cy="11423" r="78.7402" /> 
</g>
<g style="fill:#FFFFFF; fill-opacity:1.0; 
stroke:#FFFFFF; stroke-width:39.3701; stroke-opacity:1; 
stroke-linecap:round; stroke-linejoin:round;">
</g>
<g style="fill:#FFFFFF; fill-opacity:1.0; 
stroke:#FFFFFF; stroke-width:0; stroke-opacity:1; 
stroke-linecap:round; stroke-linejoin:round;">
<circle cx="7419.61" cy="12842" r="78.7402" /> 
</g>
<g style="fill:#FFFFFF; fill-opacity:1.0; 
stroke:#FFFFFF; stroke-width:39.3701; stroke-opacity:1; 
stroke-linecap:round; stroke-linejoin:round;">
</g>
<g style="fill:#FFFFFF; fill-opacity:1.0; 
stroke:#FFFFFF; stroke-width:0; stroke-opacity:1; 
stroke-linecap:round; stroke-linejoin:round;">
<circle cx="12119.6" cy="9882.05" r="78.7402" /> 
</g>
<g style="fill:#FFFFFF; fill-opacity:1.0; 
stroke:#FFFFFF; stroke-width:39.3701; stroke-opacity:1; 
stroke-linecap:round; stroke-linejoin:round;">
</g>
<g style="fill:#FFFFFF; fill-opacity:1.0; 
stroke:#FFFFFF; stroke-width:0; stroke-opacity:1; 
stroke-linecap:round; stroke-linejoin:round;">
<circle cx="8649.61" cy="11122" r="78.7402" /> 
</g>
<g style="fill:#FFFFFF; fill-opacity:1.0; 
stroke:#FFFFFF; stroke-width:39.3701; stroke-opacity:1; 
stroke-linecap:round; stroke-linejoin:round;">
</g>
<g style="fill:#FFFFFF; fill-opacity:1.0; 
stroke:#FFFFFF; stroke-width:0; stroke-opacity:1; 
stroke-linecap:round; stroke-linejoin:round;">
<circle cx="10899.6" cy="7422.05" r="78.7402" /> 
</g>
<g style="fill:#FFFFFF; fill-opacity:1.0; 
stroke:#FFFFFF; stroke-width:39.3701; stroke-opacity:1; 
stroke-linecap:round; stroke-linejoin:round;">
</g>
<g style="fill:#FFFFFF; fill-opacity:1.0; 
stroke:#FFFFFF; stroke-width:0; stroke-opacity:1; 
stroke-linecap:round; stroke-linejoin:round;">
<circle cx="12999.6" cy="12622" r="78.7402" /> 
</g>
<g style="fill:#FFFFFF; fill-opacity:1.0; 
stroke:#FFFFFF; stroke-width:39.3701; stroke-opacity:1; 
stroke-linecap:round; stroke-linejoin:round;">
</g>
<g style="fill:#FFFFFF; fill-opacity:1.0; 
stroke:#FFFFFF; stroke-width:0; stroke-opacity:1; 
stroke-linecap:round; stroke-linejoin:round;">
<circle cx="11149.6" cy="4122.05" r="200" /> 
</g>
<g style="fill:#FFFFFF; fill-opacity:1.0; 
stroke:#FFFFFF; stroke-width:39.3701; stroke-opacity:1; 
stroke-linecap:round; stroke-linejoin:round;">
</g>
<g style="fill:#FFFFFF; fill-opacity:1.0; 
stroke:#FFFFFF; stroke-width:0; stroke-opacity:1; 
stroke-linecap:round; stroke-linejoin:round;">
<circle cx="12149.6" cy="4122.05" r="200" /> 
</g>
<g style="fill:#FFFFFF; fill-opacity:1.0; 
stroke:#FFFFFF; stroke-width:39.3701; stroke-opacity:1; 
stroke-linecap:round; stroke-linejoin:round;">
</g>
<g style="fill:#FFFFFF; fill-opacity:1.0; 
stroke:#FFFFFF; stroke-width:0; stroke-opacity:1; 
stroke-linecap:round; stroke-linejoin:round;">
<circle cx="6649.61" cy="4122.05" r="200" /> 
</g>
<g style="fill:#FFFFFF; fill-opacity:1.0; 
stroke:#FFFFFF; stroke-width:39.3701; stroke-opacity:1; 
stroke-linecap:round; stroke-linejoin:round;">
</g>
<g style="fill:#FFFFFF; fill-opacity:1.0; 
stroke:#FFFFFF; stroke-width:0; stroke-opacity:1; 
stroke-linecap:round; stroke-linejoin:round;">
<circle cx="7649.61" cy="4122.05" r="200" /> 
</g>
<g style="fill:#FFFFFF; fill-opacity:1.0; 
stroke:#FFFFFF; stroke-width:39.3701; stroke-opacity:1; 
stroke-linecap:round; stroke-linejoin:round;">
</g>
<g style="fill:#FFFFFF; fill-opacity:1.0; 
stroke:#FFFFFF; stroke-width:0; stroke-opacity:1; 
stroke-linecap:round; stroke-linejoin:round;">
<circle cx="8649.61" cy="4122.05" r="200" /> 
</g>
<g style="fill:#FFFFFF; fill-opacity:1.0; 
stroke:#FFFFFF; stroke-width:39.3701; stroke-opacity:1; 
stroke-linecap:round; stroke-linejoin:round;">
</g>
<g style="fill:#000000; fill-opacity:1.0; 
stroke:#000000; stroke-width:39.3701; stroke-opacity:1; 
stroke-linecap:round; stroke-linejoin:round;">
</g>
<g style="fill:#000000; fill-opacity:1.0; 
stroke:#000000; stroke-width:0; stroke-opacity:1; 
stroke-linecap:round; stroke-linejoin:round;">
<polyline style="fill-rule:evenodd;"
points="11759,9178
11759,9965
10814,9965
10814,9178
11759,9178
" /> 
<polyline style="fill-rule:evenodd;"
points="10184,9178
10184,9965
9239,9965
9239,9178
10184,9178
" /> 
<polyline style="fill-rule:evenodd;"
points="9028,14093
8576,14093
8576,13463
9028,13463
9028,14093
" /> 
<polyline style="fill-rule:evenodd;"
points="9028,13344
8576,13344
8576,12715
9028,12715
9028,13344
" /> 
<polyline style="fill-rule:evenodd;"
points="10569,14121
10117,14121
10117,13491
10569,13491
10569,14121
" /> 
<polyline style="fill-rule:evenodd;"
points="10569,13372
10117,13372
10117,12743
10569,12743
10569,13372
" /> 
<polyline style="fill-rule:evenodd;"
points="11296,10592
11296,10139
11926,10139
11926,10592
11296,10592
" /> 
<polyline style="fill-rule:evenodd;"
points="12044,10592
12044,10139
12674,10139
12674,10592
12044,10592
" /> 
<polyline style="fill-rule:evenodd;"
points="12674,10881
12674,11334
12044,11334
12044,10881
12674,10881
" /> 
<polyline style="fill-rule:evenodd;"
points="11926,10881
11926,11334
11296,11334
11296,10881
11926,10881
" /> 
<polyline style="fill-rule:evenodd;"
points="6786,8328
7494,8328
7494,8839
6786,8839
6786,8328
" /> 
<polyline style="fill-rule:evenodd;"
points="6786,7068
7494,7068
7494,8091
6786,8091
6786,7068
" /> 
<polyline style="fill-rule:evenodd;"
points="10587,7632
9879,7632
9879,7120
10587,7120
10587,7632
" /> 
<polyline style="fill-rule:evenodd;"
points="10587,8891
9879,8891
9879,7868
10587,7868
10587,8891
" /> 
<polyline style="fill-rule:evenodd;"
points="8333,10752
6719,10752
6719,10209
8333,10209
8333,10752
" /> 
<polyline style="fill-rule:evenodd;"
points="8333,9819
6719,9819
6719,9276
8333,9276
8333,9819
" /> 
<polyline style="fill-rule:evenodd;"
points="9424,7296
9424,8911
8881,8911
8881,7296
9424,7296
" /> 
<polyline style="fill-rule:evenodd;"
points="8491,7296
8491,8911
7948,8911
7948,7296
8491,7296
" /> 
<polyline style="fill-rule:evenodd;"
points="9241,12587
9753,12587
9753,13216
9241,13216
9241,12587
" /> 
<polyline style="fill-rule:evenodd;"
points="9241,13453
9753,13453
9753,14083
9241,14083
9241,13453
" /> 
<polyline style="fill-rule:evenodd;"
points="10773,12607
11285,12607
11285,13236
10773,13236
10773,12607
" /> 
<polyline style="fill-rule:evenodd;"
points="10773,13473
11285,13473
11285,14103
10773,14103
10773,13473
" /> 
<polyline style="fill-rule:evenodd;"
points="8360,12055
8360,12566
7730,12566
7730,12055
8360,12055
" /> 
<polyline style="fill-rule:evenodd;"
points="7494,12055
7494,12566
6864,12566
6864,12055
7494,12055
" /> 
<polyline style="fill-rule:evenodd;"
points="12747,11615
12747,12126
12117,12126
12117,11615
12747,11615
" /> 
<polyline style="fill-rule:evenodd;"
points="11881,11615
11881,12126
11251,12126
11251,11615
11881,11615
" /> 
<polyline style="fill-rule:evenodd;"
points="6873,11818
6873,11307
7503,11307
7503,11818
6873,11818
" /> 
<polyline style="fill-rule:evenodd;"
points="7739,11818
7739,11307
8369,11307
8369,11818
7739,11818
" /> 
<polyline style="fill-rule:evenodd;"
points="12709,13791
12197,13791
12197,13161
12709,13161
12709,13791
" /> 
<polyline style="fill-rule:evenodd;"
points="12709,12924
12197,12924
12197,12295
12709,12295
12709,12924
" /> 
<polyline style="fill-rule:evenodd;"
points="8903,10921
8903,10645
9348,10645
9348,10921
8903,10921
" /> 
<polyline style="fill-rule:evenodd;"
points="8903,11117
8903,10842
9348,10842
9348,11117
8903,11117
" /> 
<polyline style="fill-rule:evenodd;"
points="8903,11314
8903,11039
9348,11039
9348,11314
8903,11314
" /> 
<polyline style="fill-rule:evenodd;"
points="8903,11511
8903,11236
9348,11236
9348,11511
8903,11511
" /> 
<polyline style="fill-rule:evenodd;"
points="8903,11708
8903,11432
9348,11432
9348,11708
8903,11708
" /> 
<polyline style="fill-rule:evenodd;"
points="9643,12173
9368,12173
9368,11728
9643,11728
9643,12173
" /> 
<polyline style="fill-rule:evenodd;"
points="9840,12173
9565,12173
9565,11728
9840,11728
9840,12173
" /> 
<polyline style="fill-rule:evenodd;"
points="10037,12173
9761,12173
9761,11728
10037,11728
10037,12173
" /> 
<polyline style="fill-rule:evenodd;"
points="10234,12173
9958,12173
9958,11728
10234,11728
10234,12173
" /> 
<polyline style="fill-rule:evenodd;"
points="10431,12173
10155,12173
10155,11728
10431,11728
10431,12173
" /> 
<polyline style="fill-rule:evenodd;"
points="10450,11708
10450,11432
10895,11432
10895,11708
10450,11708
" /> 
<polyline style="fill-rule:evenodd;"
points="10450,11511
10450,11236
10895,11236
10895,11511
10450,11511
" /> 
<polyline style="fill-rule:evenodd;"
points="10450,11314
10450,11039
10895,11039
10895,11314
10450,11314
" /> 
<polyline style="fill-rule:evenodd;"
points="10450,11117
10450,10842
10895,10842
10895,11117
10450,11117
" /> 
<polyline style="fill-rule:evenodd;"
points="10450,10921
10450,10645
10895,10645
10895,10921
10450,10921
" /> 
<polyline style="fill-rule:evenodd;"
points="10431,10625
10155,10625
10155,10180
10431,10180
10431,10625
" /> 
<polyline style="fill-rule:evenodd;"
points="10234,10625
9958,10625
9958,10180
10234,10180
10234,10625
" /> 
<polyline style="fill-rule:evenodd;"
points="10037,10625
9761,10625
9761,10180
10037,10180
10037,10625
" /> 
<polyline style="fill-rule:evenodd;"
points="9840,10625
9565,10625
9565,10180
9840,10180
9840,10625
" /> 
<polyline style="fill-rule:evenodd;"
points="9643,10625
9368,10625
9368,10180
9643,10180
9643,10625
" /> 
<polyline style="fill-rule:evenodd;"
points="9820,11747
9820,11098
10470,11098
10470,11747
9820,11747
" /> 
<polyline style="fill-rule:evenodd;"
points="9820,11255
9820,10606
10470,10606
10470,11255
9820,11255
" /> 
<polyline style="fill-rule:evenodd;"
points="9328,11747
9328,11098
9978,11098
9978,11747
9328,11747
" /> 
<polyline style="fill-rule:evenodd;"
points="9328,11255
9328,10606
9978,10606
9978,11255
9328,11255
" /> 
<polyline style="fill-rule:evenodd;"
points="6139,6565
6139,5778
7084,5778
7084,6565
6139,6565
" /> 
<polyline style="fill-rule:evenodd;"
points="7714,6565
7714,5778
8659,5778
8659,6565
7714,6565
" /> 
<polyline style="fill-rule:evenodd;"
points="8839,6565
8839,5778
9784,5778
9784,6565
8839,6565
" /> 
<polyline style="fill-rule:evenodd;"
points="10414,6565
10414,5778
11359,5778
11359,6565
10414,6565
" /> 
<polyline style="fill-rule:evenodd;"
points="10770,4500
10770,3743
11528,3743
11528,4500
10770,4500
" /> 
<circle cx="12149.6" cy="4122.05" r="378.74" /> 
</g>
<g style="fill:#000000; fill-opacity:1.0; 
stroke:#000000; stroke-width:39.3701; stroke-opacity:1; 
stroke-linecap:round; stroke-linejoin:round;">
</g>
<g style="fill:#000000; fill-opacity:1.0; 
stroke:#000000; stroke-width:0; stroke-opacity:1; 
stroke-linecap:round; stroke-linejoin:round;">
<polyline style="fill-rule:evenodd;"
points="6270,4500
6270,3743
7028,3743
7028,4500
6270,4500
" /> 
<circle cx="7649.61" cy="4122.05" r="378.74" /> 
</g>
<g style="fill:#000000; fill-opacity:1.0; 
stroke:#000000; stroke-width:39.3701; stroke-opacity:1; 
stroke-linecap:round; stroke-linejoin:round;">
</g>
<g style="fill:#000000; fill-opacity:1.0; 
stroke:#000000; stroke-width:0; stroke-opacity:1; 
stroke-linecap:round; stroke-linejoin:round;">
<circle cx="8649.61" cy="4122.05" r="378.74" /> 
</g>
<g style="fill:#000000; fill-opacity:1.0; 
stroke:#000000; stroke-width:39.3701; stroke-opacity:1; 
stroke-linecap:round; stroke-linejoin:round;">
</g>
<g style="fill:#000000; fill-opacity:1.0; 
stroke:#000000; stroke-width:59.0551; stroke-opacity:1; 
stroke-linecap:round; stroke-linejoin:round;">
</g>
<g style="fill:#000000; fill-opacity:0.0; 
stroke:#000000; stroke-width:59.0551; stroke-opacity:1; 
stroke-linecap:round; stroke-linejoin:round;">
<path d="M5649 15122
L14149 15122
" />
<path d="M14149 3122
L14149 15122
" />
<path d="M5649 3122
L14149 3122
" />
<path d="M5649 5122
L5649 3122
" />
<path d="M5649 15122
L5649 5122
" />
</g> 
</svg>
